<?xml version="1.0" encoding="utf-8"?>
<!-- Generator: Adobe Illustrator 27.6.1, SVG Export Plug-In . SVG Version: 6.00 Build 0)  -->
<svg version="1.1" id="레이어_1" xmlns="http://www.w3.org/2000/svg" xmlns:xlink="http://www.w3.org/1999/xlink" x="0px"
	 y="0px" viewBox="0 0 37 34" style="enable-background:new 0 0 37 34;" xml:space="preserve">
<style type="text/css">
	.st0{fill:#5E7083;}
	.st1{fill:none;stroke:#000000;stroke-width:0.8;stroke-linecap:round;stroke-linejoin:round;stroke-miterlimit:10;}
	.st2{fill:#FFFFFF;}
	.st3{fill:#A7A3A3;}
	.st4{fill:#050505;}
	.st5{fill:#FDE87B;}
	.st6{fill:none;stroke:#050505;stroke-width:0.8;stroke-linecap:round;stroke-linejoin:round;stroke-miterlimit:10;}
	.st7{fill:#E7634D;}
</style>
<g>
	<path class="st0" d="M18.5,2.6C9.5,2.6,3.3,8.9,1.2,16.7C1.2,16.9,0.9,18,0.7,19c-0.2,1.6-0.3,3.2-0.3,3.4c0,10,8.1,10.8,18.1,10.8
		c10,0,18.1-0.8,18.1-10.8C36.6,12.4,29.3,2.6,18.5,2.6"/>
	<path class="st1" d="M18.5,2.6C9.5,2.6,3.3,8.9,1.2,16.7C1.2,16.9,0.9,18,0.7,19c-0.2,1.6-0.3,3.2-0.3,3.4c0,10,8.1,10.8,18.1,10.8
		c10,0,18.1-0.8,18.1-10.8C36.6,12.4,29.3,2.6,18.5,2.6z"/>
	<path class="st0" d="M35.4,21.4c-1,1-2,1.5-2.8,0.7c-0.7-0.8-0.1-1.8,0.9-2.7"/>
	<path class="st1" d="M35.4,21.4c-1,1-2,1.5-2.8,0.7c-0.7-0.8-0.1-1.8,0.9-2.7"/>
	<path class="st0" d="M3.9,19.4c1,1,1.5,2,0.7,2.8c-0.8,0.7-1.8,0.1-2.7-0.9"/>
	<path class="st1" d="M3.9,19.4c1,1,1.5,2,0.7,2.8c-0.8,0.7-1.8,0.1-2.7-0.9"/>
	<path class="st2" d="M5.7,19.4c0.6,6.3,5.8,4.9,13.3,4.8c7.1-0.1,12.3,0.9,12.3-6.5c0-5.5-3.1-11.2-7.9-11.4
		c-1.9-0.1-2.8,0.6-4.8,0.8c-1.6,0.1-2.9-0.9-5.4-0.5C8.6,7.5,5.2,13.6,5.7,19.4"/>
	<polyline class="st1" points="19.8,0.6 18.5,2.4 17.3,0.4 	"/>
	<path d="M15.3,12.1c-0.4,0-0.7,0.3-0.7,0.7c0,0.4,0.3,0.7,0.7,0.7c0.4,0,0.7-0.3,0.7-0.7C16,12.4,15.7,12.1,15.3,12.1"/>
	<path d="M21.8,12.1c-0.4,0-0.7,0.3-0.7,0.7c0,0.4,0.3,0.7,0.7,0.7c0.4,0,0.7-0.3,0.7-0.7C22.5,12.4,22.2,12.1,21.8,12.1"/>
	<path class="st1" d="M2.8,12.6c0,0,2.6,6.1,9.2,6.1"/>
	<path class="st3" d="M15.2,19.1c0,0.8-0.7,1.5-1.5,1.5s-1.5-0.7-1.5-1.5c0-0.8,0.7-1.5,1.5-1.5S15.2,18.2,15.2,19.1"/>
	<path class="st1" d="M15.2,19.1c0,0.8-0.7,1.5-1.5,1.5s-1.5-0.7-1.5-1.5c0-0.8,0.7-1.5,1.5-1.5S15.2,18.2,15.2,19.1z"/>
	<rect x="17" y="16.6" class="st4" width="3.2" height="3.4"/>
	<path class="st5" d="M19.7,19.5c-0.8,0-1.4,0-2.1,0c-0.2,0-0.3,0.1-0.3,0.3c-0.1,0.6-0.2,1.9,1.4,1.9c1.5,0,1.5-1.3,1.4-1.9
		C20,19.6,19.9,19.5,19.7,19.5"/>
	<path class="st6" d="M19.7,19.5c-0.8,0-1.4,0-2.1,0c-0.2,0-0.3,0.1-0.3,0.3c-0.1,0.6-0.2,1.9,1.4,1.9c1.5,0,1.5-1.3,1.4-1.9
		C20,19.6,19.9,19.5,19.7,19.5z"/>
	<path class="st5" d="M17.6,16.7c0.7,0.1,1.4,0.1,2.1,0c0.2,0,0.3-0.1,0.3-0.3c0.1-0.6,0.2-1.9-1.4-1.9c-1.5,0-1.5,1.3-1.4,1.9
		C17.3,16.6,17.4,16.7,17.6,16.7"/>
	<path class="st6" d="M17.6,16.7c0.7,0.1,1.4,0.1,2.1,0c0.2,0,0.3-0.1,0.3-0.3c0.1-0.6,0.2-1.9-1.4-1.9c-1.5,0-1.5,1.3-1.4,1.9
		C17.3,16.6,17.4,16.7,17.6,16.7z"/>
	<path class="st7" d="M17.5,19.1h2.3C19.8,19.1,18.6,17.6,17.5,19.1"/>
</g>
</svg>
